<svg width="24" height="24" viewBox="0 0 24 24" xmlns="http://www.w3.org/2000/svg">
  <path fill="#000000" fill-rule="evenodd" d="M8.52274 1C8.21003 1 8.05367 1 7.90007 1.03709C7.76389 1.06997 7.63342 1.124 7.51358 1.19705C7.37852 1.27944 7.26797 1.38998 7.04688 1.61108L1.61108 7.04688C1.38998 7.26797 1.27944 7.37852 1.19705 7.51358C1.124 7.63342 1.06997 7.76389 1.03709 7.90007C1 8.05367 1 8.21003 1 8.52274V15.4773C1 15.79 1 15.9463 1.03709 16.0999C1.06997 16.2361 1.124 16.3666 1.19705 16.4864C1.27944 16.6215 1.38998 16.732 1.61108 16.9531L7.04688 22.3889C7.26797 22.61 7.37852 22.7206 7.51358 22.8029C7.63342 22.876 7.76389 22.93 7.90007 22.9629C8.05367 23 8.21003 23 8.52274 23H15.4773C15.79 23 15.9463 23 16.0999 22.9629C16.2361 22.93 16.3666 22.876 16.4864 22.8029C16.6215 22.7206 16.732 22.61 16.9531 22.3889L22.3889 16.9531C22.61 16.732 22.7206 16.6215 22.8029 16.4864C22.876 16.3666 22.93 16.2361 22.9629 16.0999C23 15.9463 23 15.79 23 15.4773V8.52274C23 8.21003 23 8.05367 22.9629 7.90007C22.93 7.76389 22.876 7.63342 22.8029 7.51358C22.7206 7.37852 22.61 7.26797 22.3889 7.04688L16.9531 1.61108C16.732 1.38998 16.6215 1.27944 16.4864 1.19705C16.3666 1.124 16.2361 1.06997 16.0999 1.03709C15.9463 1 15.79 1 15.4773 1H8.52274ZM8.93618 3H15.0638L21 8.93618V15.0638L15.0638 21H8.93618L3 15.0638V8.93618L8.93618 3Z"/>
  <rect x="11" y="7" width="2" height="2" rx="1" fill="#000000"/>
  <rect x="11" y="11" width="2" height="5" rx="1" fill="#000000"/>
</svg>